<?xml version="1.0" encoding="utf-8"?>
<!-- Generator: Adobe Illustrator 26.0.2, SVG Export Plug-In . SVG Version: 6.00 Build 0)  -->
<svg version="1.1" id="Layer_1" xmlns="http://www.w3.org/2000/svg" xmlns:xlink="http://www.w3.org/1999/xlink" x="0px" y="0px"
	 viewBox="0 0 356 101" style="enable-background:new 0 0 356 101;" xml:space="preserve">
<style type="text/css">
	.st0{clip-path:url(#SVGID_00000093885850274208692710000002006527153941982120_);}
	.st1{fill:#C9152B;}
	.st2{fill:#656669;}
	.st3{fill:#080909;}
	.st4{enable-background:new    ;}
</style>
<g id="thermal-systems-logo" transform="translate(-24 -18)">
	<g id="Group_2" transform="translate(24 18)">
		<g>
			<defs>
				<rect id="SVGID_1_" width="78.1" height="101"/>
			</defs>
			<clipPath id="SVGID_00000093169956695818692930000001478123646642800572_">
				<use xlink:href="#SVGID_1_"  style="overflow:visible;"/>
			</clipPath>
			<g id="Group_1" style="clip-path:url(#SVGID_00000093169956695818692930000001478123646642800572_);">
				<path id="Path_3218" class="st1" d="M78.1,0v15.6c0,0-46.4,8-78.1,40.2v-7.1C0,48.7,15.2,21.4,78.1,0"/>
				<path id="Path_3219" class="st1" d="M78.1,23.7v15.2c-43.2,8-66.7,17-78.1,29v-7.6C14.4,44.2,40.5,33,78.1,23.7"/>
				<path id="Path_3220" class="st2" d="M0,83.9v6.4c5.6,4.6,12,8.2,18.8,10.7v-6C15.4,93.6,1,85.3,0,83.9"/>
				<path id="Path_3221" class="st2" d="M6.8,79.5l-4.9,2.5c2.7,2.7,12.1,7.6,16.9,9.6v-6C16.7,84.6,8.2,80.4,6.8,79.5"/>
				<path id="Path_3222" class="st1" d="M78.1,62c-20.5,1.3-65,6.3-78,17v-7.8C10.8,59.7,53,50,78.1,46.6V62z"/>
				<path id="Path_3223" class="st3" d="M20,74.5h28.1v6.7H39V101h-9.9V81.2H20V74.5z"/>
				<path id="Path_3224" class="st3" d="M73.7,74.5v6.4c-5.9-2.7-11.8-1.9-11.8,0c0,5.1,13.7,2.4,13.7,11c0,6.5-6.4,9.1-14.7,9.1
					c-5.9,0-9.1-1-9.1-1.6v-7.3c2.3,2.3,12.8,3.8,12.6,1.1C64,89.5,50.9,90.3,50.9,82C50.9,75,60.8,70.7,73.7,74.5"/>
			</g>
		</g>
	</g>
	<g class="st4">
		<path d="M127.2,66H123V49.5h-5.4V46h15.1v3.5h-5.4V66z"/>
		<path d="M152.1,66h-4.2v-8.6H140V66h-4.2V46h4.2v7.8h7.9V46h4.2V66z"/>
		<path d="M168.7,66h-11.5V46h11.5v3.5h-7.3v4.4h6.8v3.5h-6.8v5.2h7.3V66z"/>
		<path d="M177.1,58.3V66h-4.2V46h5.8c2.7,0,4.7,0.5,6,1.5c1.3,1,2,2.5,2,4.5c0,1.2-0.3,2.2-1,3.1c-0.6,0.9-1.6,1.6-2.7,2.2
			c3,4.5,5,7.4,5.9,8.7h-4.7l-4.8-7.7H177.1z M177.1,54.9h1.4c1.3,0,2.3-0.2,3-0.7c0.6-0.4,1-1.1,1-2.1c0-0.9-0.3-1.6-1-2
			c-0.7-0.4-1.7-0.6-3-0.6h-1.3V54.9z"/>
		<path d="M199.8,66L195,50.3h-0.1c0.2,3.2,0.3,5.3,0.3,6.4V66h-3.8V46h5.8l4.7,15.3h0.1l5-15.3h5.8v20h-4v-9.5c0-0.4,0-1,0-1.5
			s0.1-2.1,0.2-4.6h-0.1L203.7,66H199.8z"/>
		<path d="M230,66l-1.4-4.8h-7.3l-1.4,4.8h-4.6l7.1-20.1h5.2l7.1,20.1H230z M227.5,57.7c-1.3-4.3-2.1-6.7-2.3-7.3s-0.3-1-0.4-1.3
			c-0.3,1.2-1.2,4.1-2.6,8.7H227.5z"/>
		<path d="M237,66V46h4.2v16.5h8.1V66H237z"/>
	</g>
	<g class="st4">
		<path class="st1" d="M271.9,60.4c0,1.8-0.6,3.2-1.9,4.3s-3.1,1.6-5.4,1.6c-2.1,0-4-0.4-5.7-1.2v-3.9c1.3,0.6,2.5,1,3.4,1.3
			s1.8,0.4,2.6,0.4c0.9,0,1.6-0.2,2.1-0.5s0.7-0.9,0.7-1.6c0-0.4-0.1-0.7-0.3-1s-0.5-0.6-1-0.9s-1.3-0.7-2.6-1.4
			c-1.2-0.6-2.1-1.1-2.7-1.7c-0.6-0.5-1.1-1.1-1.5-1.8c-0.4-0.7-0.5-1.5-0.5-2.5c0-1.8,0.6-3.2,1.8-4.2s2.9-1.5,5-1.5
			c1,0,2,0.1,3,0.4s1.9,0.6,3,1l-1.4,3.3c-1.1-0.4-1.9-0.7-2.6-0.9s-1.4-0.3-2.1-0.3c-0.8,0-1.4,0.2-1.8,0.6
			c-0.4,0.4-0.6,0.9-0.6,1.5c0,0.4,0.1,0.7,0.3,1c0.2,0.3,0.4,0.5,0.8,0.8s1.3,0.7,2.7,1.4c1.9,0.9,3.1,1.8,3.8,2.7
			C271.6,58,271.9,59.1,271.9,60.4z"/>
		<path class="st1" d="M281.8,54.2l4.2-8.2h4.6l-6.6,12.2V66h-4.2v-7.6L273,46h4.6L281.8,54.2z"/>
		<path class="st1" d="M304.8,60.4c0,1.8-0.6,3.2-1.9,4.3s-3.1,1.6-5.4,1.6c-2.1,0-4-0.4-5.7-1.2v-3.9c1.3,0.6,2.5,1,3.4,1.3
			s1.8,0.4,2.6,0.4c0.9,0,1.6-0.2,2.1-0.5s0.7-0.9,0.7-1.6c0-0.4-0.1-0.7-0.3-1s-0.5-0.6-1-0.9s-1.3-0.7-2.6-1.4
			c-1.2-0.6-2.1-1.1-2.7-1.7c-0.6-0.5-1.1-1.1-1.5-1.8c-0.4-0.7-0.5-1.5-0.5-2.5c0-1.8,0.6-3.2,1.8-4.2s2.9-1.5,5-1.5
			c1,0,2,0.1,3,0.4s1.9,0.6,3,1l-1.4,3.3c-1.1-0.4-1.9-0.7-2.6-0.9s-1.4-0.3-2.1-0.3c-0.8,0-1.4,0.2-1.8,0.6
			c-0.4,0.4-0.6,0.9-0.6,1.5c0,0.4,0.1,0.7,0.3,1c0.2,0.3,0.4,0.5,0.8,0.8s1.3,0.7,2.7,1.4c1.9,0.9,3.1,1.8,3.8,2.7
			C304.5,58,304.8,59.1,304.8,60.4z"/>
		<path class="st1" d="M316.2,66h-4.2V49.5h-5.4V46h15.1v3.5h-5.4V66z"/>
		<path class="st1" d="M336.2,66h-11.5V46h11.5v3.5h-7.3v4.4h6.8v3.5h-6.8v5.2h7.3V66z"/>
		<path class="st1" d="M348.8,66L344,50.3h-0.1c0.2,3.2,0.3,5.3,0.3,6.4V66h-3.8V46h5.8l4.7,15.3h0.1l5-15.3h5.8v20h-4v-9.5
			c0-0.4,0-1,0-1.5s0.1-2.1,0.2-4.6h-0.1L352.7,66H348.8z"/>
		<path class="st1" d="M378.5,60.4c0,1.8-0.6,3.2-1.9,4.3s-3.1,1.6-5.4,1.6c-2.1,0-4-0.4-5.7-1.2v-3.9c1.3,0.6,2.5,1,3.4,1.3
			s1.8,0.4,2.6,0.4c0.9,0,1.6-0.2,2.1-0.5s0.7-0.9,0.7-1.6c0-0.4-0.1-0.7-0.3-1s-0.5-0.6-1-0.9s-1.3-0.7-2.6-1.4
			c-1.2-0.6-2.1-1.1-2.7-1.7c-0.6-0.5-1.1-1.1-1.5-1.8c-0.4-0.7-0.5-1.5-0.5-2.5c0-1.8,0.6-3.2,1.8-4.2s2.9-1.5,5-1.5
			c1,0,2,0.1,3,0.4s1.9,0.6,3,1l-1.4,3.3c-1.1-0.4-1.9-0.7-2.6-0.9s-1.4-0.3-2.1-0.3c-0.8,0-1.4,0.2-1.8,0.6
			c-0.4,0.4-0.6,0.9-0.6,1.5c0,0.4,0.1,0.7,0.3,1c0.2,0.3,0.4,0.5,0.8,0.8s1.3,0.7,2.7,1.4c1.9,0.9,3.1,1.8,3.8,2.7
			C378.2,58,378.5,59.1,378.5,60.4z"/>
	</g>
	<g class="st4">
		<path d="M118.9,81.4h3.8c1.8,0,3.1,0.3,3.9,0.8c0.8,0.5,1.2,1.4,1.2,2.6c0,0.8-0.2,1.5-0.7,2c-0.4,0.5-1.1,0.9-2,1v0.1
			c2.1,0.4,3.1,1.4,3.1,3.2c0,1.2-0.4,2.2-1.2,2.8c-0.8,0.7-2,1-3.4,1h-4.7V81.4z M120.4,87.2h2.6c1.1,0,1.9-0.2,2.4-0.5
			c0.5-0.3,0.7-0.9,0.7-1.8c0-0.8-0.3-1.3-0.8-1.6c-0.5-0.3-1.4-0.5-2.6-0.5h-2.3V87.2z M120.4,88.6v5.1h2.8c1.1,0,1.9-0.2,2.5-0.6
			c0.6-0.4,0.8-1.1,0.8-2c0-0.8-0.3-1.5-0.8-1.9c-0.6-0.4-1.4-0.6-2.6-0.6H120.4z"/>
		<path d="M141.8,81.4v8.8c0,1.5-0.5,2.8-1.4,3.6c-0.9,0.9-2.2,1.3-3.9,1.3s-2.9-0.4-3.8-1.3c-0.9-0.9-1.3-2.1-1.3-3.7v-8.7h1.6v8.9
			c0,1.1,0.3,2,0.9,2.6c0.6,0.6,1.5,0.9,2.7,0.9c1.1,0,2-0.3,2.6-0.9c0.6-0.6,0.9-1.5,0.9-2.6v-8.8H141.8z"/>
		<path d="M145.8,95V81.4h1.6V95H145.8z"/>
		<path d="M151.5,95V81.4h1.6v12.1h6V95H151.5z"/>
		<path d="M172.6,88.1c0,2.2-0.6,4-1.8,5.1c-1.2,1.2-3,1.8-5.2,1.8h-3.8V81.4h4.2c2.1,0,3.7,0.6,4.9,1.8
			C172,84.4,172.6,86,172.6,88.1z M170.9,88.1c0-1.8-0.4-3.1-1.3-4c-0.9-0.9-2.2-1.3-4-1.3h-2.3v10.8h1.9c1.9,0,3.3-0.5,4.2-1.4
			C170.4,91.3,170.9,90,170.9,88.1z"/>
		<path d="M176,95V81.4h1.6V95H176z"/>
		<path d="M192.3,95h-1.8l-7.4-11.4H183c0.1,1.3,0.1,2.6,0.1,3.7V95h-1.5V81.4h1.8l7.4,11.3h0.1c0-0.2,0-0.7-0.1-1.6
			c0-0.9-0.1-1.6,0-1.9v-7.8h1.5V95z"/>
		<path d="M202.4,87.9h4.6v6.6c-0.7,0.2-1.4,0.4-2.2,0.5c-0.7,0.1-1.6,0.2-2.6,0.2c-2.1,0-3.7-0.6-4.8-1.8c-1.1-1.2-1.7-2.9-1.7-5.1
			c0-1.4,0.3-2.6,0.8-3.7c0.6-1.1,1.4-1.9,2.4-2.4c1.1-0.6,2.3-0.8,3.7-0.8c1.4,0,2.8,0.3,4,0.8l-0.6,1.4c-1.2-0.5-2.4-0.8-3.5-0.8
			c-1.7,0-2.9,0.5-3.9,1.5s-1.4,2.3-1.4,4.1c0,1.8,0.4,3.2,1.3,4.2c0.9,0.9,2.2,1.4,3.9,1.4c0.9,0,1.9-0.1,2.8-0.3v-4.2h-3V87.9z"/>
		<path d="M216,95V81.4h1.6V95H216z"/>
		<path d="M232.3,95h-1.8l-7.4-11.4H223c0.1,1.3,0.1,2.6,0.1,3.7V95h-1.5V81.4h1.8l7.4,11.3h0.1c0-0.2,0-0.7-0.1-1.6s-0.1-1.6,0-1.9
			v-7.8h1.5V95z"/>
		<path d="M244.1,91.4c0,1.2-0.4,2.1-1.3,2.8c-0.9,0.7-2,1-3.5,1c-1.6,0-2.8-0.2-3.7-0.6V93c0.6,0.2,1.2,0.4,1.8,0.6
			c0.7,0.1,1.3,0.2,1.9,0.2c1.1,0,1.8-0.2,2.4-0.6c0.5-0.4,0.8-1,0.8-1.7c0-0.5-0.1-0.9-0.3-1.2c-0.2-0.3-0.5-0.6-0.9-0.8
			c-0.4-0.3-1.1-0.5-2-0.9c-1.3-0.5-2.2-1-2.7-1.6c-0.5-0.6-0.8-1.4-0.8-2.4c0-1,0.4-1.9,1.2-2.5c0.8-0.6,1.8-0.9,3.1-0.9
			c1.3,0,2.6,0.2,3.7,0.7l-0.5,1.4c-1.1-0.5-2.2-0.7-3.3-0.7c-0.8,0-1.5,0.2-2,0.5c-0.5,0.4-0.7,0.9-0.7,1.5c0,0.5,0.1,0.9,0.3,1.2
			s0.5,0.6,0.9,0.8c0.4,0.3,1,0.5,1.9,0.8c1.4,0.5,2.4,1.1,2.9,1.6C243.8,89.7,244.1,90.5,244.1,91.4z"/>
		<path d="M255.8,85.4c0,1.4-0.5,2.4-1.4,3.2c-0.9,0.7-2.3,1.1-4,1.1h-1.6V95h-1.6V81.4h3.5C254.2,81.4,255.8,82.8,255.8,85.4z
			 M248.8,88.3h1.4c1.4,0,2.4-0.2,3-0.7s0.9-1.2,0.9-2.2c0-0.9-0.3-1.6-0.9-2c-0.6-0.4-1.5-0.7-2.7-0.7h-1.8V88.3z"/>
		<path d="M259.1,95V81.4h1.6V95H259.1z"/>
		<path d="M266.4,89.4V95h-1.6V81.4h3.7c1.7,0,2.9,0.3,3.7,1c0.8,0.6,1.2,1.6,1.2,2.9c0,1.8-0.9,3-2.7,3.6l3.7,6.1h-1.9l-3.3-5.6
			H266.4z M266.4,88h2.2c1.1,0,1.9-0.2,2.4-0.7s0.8-1.1,0.8-2c0-0.9-0.3-1.5-0.8-1.9c-0.5-0.4-1.4-0.6-2.5-0.6h-2V88z"/>
		<path d="M284.5,95h-7.6V81.4h7.6v1.4h-6v4.4h5.6v1.4h-5.6v5h6V95z"/>
		<path d="M298.7,88.1c0,2.2-0.6,4-1.8,5.1c-1.2,1.2-3,1.8-5.2,1.8h-3.8V81.4h4.2c2.1,0,3.7,0.6,4.9,1.8
			C298.1,84.4,298.7,86,298.7,88.1z M297,88.1c0-1.8-0.4-3.1-1.3-4c-0.9-0.9-2.2-1.3-4-1.3h-2.3v10.8h1.9c1.9,0,3.3-0.5,4.2-1.4
			C296.6,91.3,297,90,297,88.1z"/>
		<path d="M315.2,81.4h1.7L312,95h-1.6l-4.9-13.6h1.7l3.1,8.8c0.4,1,0.6,2,0.9,2.9c0.2-1,0.5-2,0.9-3L315.2,81.4z"/>
		<path d="M319.2,95V81.4h1.6V95H319.2z"/>
		<path d="M332.5,91.4c0,1.2-0.4,2.1-1.3,2.8c-0.9,0.7-2,1-3.5,1c-1.6,0-2.8-0.2-3.7-0.6V93c0.6,0.2,1.2,0.4,1.8,0.6
			c0.7,0.1,1.3,0.2,1.9,0.2c1.1,0,1.8-0.2,2.4-0.6c0.5-0.4,0.8-1,0.8-1.7c0-0.5-0.1-0.9-0.3-1.2c-0.2-0.3-0.5-0.6-0.9-0.8
			c-0.4-0.3-1.1-0.5-2-0.9c-1.3-0.5-2.2-1-2.7-1.6c-0.5-0.6-0.8-1.4-0.8-2.4c0-1,0.4-1.9,1.2-2.5c0.8-0.6,1.8-0.9,3.1-0.9
			c1.3,0,2.6,0.2,3.7,0.7l-0.5,1.4c-1.1-0.5-2.2-0.7-3.3-0.7c-0.8,0-1.5,0.2-2,0.5c-0.5,0.4-0.7,0.9-0.7,1.5c0,0.5,0.1,0.9,0.3,1.2
			c0.2,0.3,0.5,0.6,0.9,0.8c0.4,0.3,1,0.5,1.9,0.8c1.4,0.5,2.4,1.1,2.9,1.6C332.3,89.7,332.5,90.5,332.5,91.4z"/>
		<path d="M335.7,95V81.4h1.6V95H335.7z"/>
		<path d="M353.2,88.2c0,2.2-0.5,3.9-1.6,5.1c-1.1,1.2-2.6,1.9-4.6,1.9c-2,0-3.5-0.6-4.6-1.8c-1.1-1.2-1.6-2.9-1.6-5.2
			c0-2.2,0.5-3.9,1.6-5.1c1.1-1.2,2.6-1.8,4.6-1.8c1.9,0,3.5,0.6,4.6,1.9C352.6,84.3,353.2,86,353.2,88.2z M342.4,88.2
			c0,1.8,0.4,3.2,1.2,4.2c0.8,1,1.9,1.4,3.4,1.4c1.5,0,2.6-0.5,3.4-1.4s1.2-2.3,1.2-4.2c0-1.8-0.4-3.2-1.1-4.2
			c-0.8-0.9-1.9-1.4-3.4-1.4c-1.5,0-2.6,0.5-3.4,1.4S342.4,86.4,342.4,88.2z"/>
		<path d="M367.2,95h-1.8L358,83.6h-0.1c0.1,1.3,0.1,2.6,0.1,3.7V95h-1.5V81.4h1.8l7.4,11.3h0.1c0-0.2,0-0.7-0.1-1.6s-0.1-1.6,0-1.9
			v-7.8h1.5V95z"/>
		<path d="M379,91.4c0,1.2-0.4,2.1-1.3,2.8s-2,1-3.5,1c-1.6,0-2.8-0.2-3.7-0.6V93c0.6,0.2,1.2,0.4,1.8,0.6c0.7,0.1,1.3,0.2,1.9,0.2
			c1.1,0,1.8-0.2,2.4-0.6c0.5-0.4,0.8-1,0.8-1.7c0-0.5-0.1-0.9-0.3-1.2s-0.5-0.6-0.9-0.8c-0.4-0.3-1.1-0.5-2-0.9
			c-1.3-0.5-2.2-1-2.7-1.6c-0.5-0.6-0.8-1.4-0.8-2.4c0-1,0.4-1.9,1.2-2.5c0.8-0.6,1.8-0.9,3.1-0.9c1.3,0,2.6,0.2,3.7,0.7l-0.5,1.4
			c-1.1-0.5-2.2-0.7-3.3-0.7c-0.8,0-1.5,0.2-2,0.5c-0.5,0.4-0.7,0.9-0.7,1.5c0,0.5,0.1,0.9,0.3,1.2c0.2,0.3,0.5,0.6,0.9,0.8
			c0.4,0.3,1,0.5,1.9,0.8c1.4,0.5,2.4,1.1,2.9,1.6C378.7,89.7,379,90.5,379,91.4z"/>
	</g>
</g>
</svg>
